<svg width="170" height="93" viewBox="0 0 170 93" fill="none" xmlns="http://www.w3.org/2000/svg">
<path d="M3.54603 65.0462C13.2723 48.8513 20.4052 48.6912 26.2099 48.9575C23.6552 48.7696 18.4337 44.6389 19.1057 34.8279C19.79 24.8388 45.4424 16.8104 40.2681 26.2166C37.1534 31.8787 40.7718 35.0607 42.0465 38.2514C49.7948 33.8936 60.8697 23.6148 72.7349 28.3156C92.5933 36.183 106.264 45.1033 118.904 46.6699L121.801 46.7233C125.4 46.7897 129.439 44.8638 116.589 36.6255C105.285 25.9153 71.2976 -2.21614 99.0992 8.79831C121.341 17.6099 128.649 33.514 129.522 40.3646L133.964 37.9461C136.519 34.9927 128.457 25.8425 127.29 25.821C114.032 12.5743 110.983 6.18363 112.226 2.03918C148.026 13.2011 125.291 25.7841 141.585 37.0864C158.349 48.7146 161.388 54.9546 159.676 59.4238C156.678 67.2506 125.007 68.2861 145.448 71.6635C161.801 74.3655 167.075 83.0642 167.668 87.0758C166.113 90.0476 162.225 94.7768 159.114 89.9186C156.003 85.0604 148.572 83.0564 145.245 82.6617C133.655 82.0479 115.512 76.9458 107.89 74.4715C75.6259 61.3745 51.1116 61.9226 32.1056 62.0722C13.0996 62.2218 -7.85081 84.0228 3.54603 65.0462Z" fill="#FFB69F"/>
<ellipse cx="138.242" cy="50.027" rx="1.5" ry="2.5" transform="rotate(1.05641 138.242 50.027)" fill="black"/>
<ellipse cx="144.297" cy="47.1381" rx="1.5" ry="2.5" transform="rotate(1.05641 144.297 47.1381)" fill="black"/>
<path d="M64.563 31.8707C71.2897 30.0702 74.155 36.9071 73.7681 37.375C71.2052 35.2558 69.014 35.0195 68.2388 35.1663C62.7117 34.1409 38.1147 47.2823 46.7303 41.0143C53.6228 35.9999 59.5249 33.2192 64.563 31.8707Z" fill="#FBE36A"/>
<path d="M119.352 26.5269C122.949 30.87 128.517 36.478 125.631 37.8129C123.701 33.608 125.655 36.5289 122.464 32.4693C117.66 26.3573 86.6835 5.40588 100.393 12.0855C111.316 17.4073 113.217 19.1198 119.352 26.5269Z" fill="#FBE36A"/>
</svg>
